<svg xmlns="http://www.w3.org/2000/svg" width="1200" height="900" viewBox="0 0 1200 900">
  <defs>
    <radialGradient id="core" cx="50%" cy="50%" r="50%">
      <stop offset="0%" stop-color="#E0F2FE"/>
      <stop offset="32%" stop-color="#38BDF8"/>
      <stop offset="68%" stop-color="#7C3AED" stop-opacity=".55"/>
      <stop offset="100%" stop-color="#020617" stop-opacity="0"/>
    </radialGradient>
    <linearGradient id="line" x1="0" y1="0" x2="1" y2="1">
      <stop stop-color="#38BDF8"/>
      <stop offset="1" stop-color="#86EFAC"/>
    </linearGradient>
    <filter id="glow">
      <feGaussianBlur stdDeviation="6" result="blur"/>
      <feMerge>
        <feMergeNode in="blur"/>
        <feMergeNode in="SourceGraphic"/>
      </feMerge>
    </filter>
  </defs>
  <rect width="1200" height="900" fill="#020617"/>
  <g opacity=".32">
    <path d="M80 590C250 360 480 285 720 325C890 354 1030 455 1130 618" stroke="url(#line)" stroke-width="2" fill="none"/>
    <path d="M118 438C325 225 604 188 825 265C982 320 1082 423 1154 553" stroke="#A78BFA" stroke-width="1.3" fill="none" opacity=".7"/>
    <path d="M160 716C345 525 604 472 827 532C965 569 1070 646 1148 758" stroke="#38BDF8" stroke-width="1.2" fill="none" opacity=".55"/>
  </g>
  <circle cx="655" cy="405" r="212" fill="url(#core)" opacity=".82"/>
  <g filter="url(#glow)">
    <circle cx="655" cy="405" r="82" fill="#020617" stroke="#BAE6FD" stroke-width="2"/>
    <circle cx="655" cy="405" r="34" fill="#38BDF8"/>
    <circle cx="448" cy="307" r="18" fill="#86EFAC"/>
    <circle cx="813" cy="292" r="15" fill="#C4B5FD"/>
    <circle cx="895" cy="522" r="20" fill="#FDE68A"/>
    <circle cx="391" cy="560" r="14" fill="#FDA4AF"/>
    <circle cx="714" cy="657" r="16" fill="#38BDF8"/>
  </g>
  <g stroke="#E0F2FE" stroke-opacity=".28">
    <line x1="448" y1="307" x2="655" y2="405"/>
    <line x1="813" y1="292" x2="655" y2="405"/>
    <line x1="895" y1="522" x2="655" y2="405"/>
    <line x1="391" y1="560" x2="655" y2="405"/>
    <line x1="714" y1="657" x2="655" y2="405"/>
  </g>
</svg>
