<svg xmlns="http://www.w3.org/2000/svg" width="96" height="128" viewBox="0 0 96 128">
  <defs>
    <linearGradient id="p" x1="0" y1="0" x2="1" y2="1">
      <stop offset="0" stop-color="#d9ffb3"/>
      <stop offset=".35" stop-color="#48c96f"/>
      <stop offset="1" stop-color="#0f4a38"/>
    </linearGradient>
    <linearGradient id="pShadow" x1="0" y1="0" x2="1" y2="1">
      <stop offset="0" stop-color="#1c8d50"/>
      <stop offset="1" stop-color="#082d24"/>
    </linearGradient>
    <filter id="leafGlow" x="-30%" y="-30%" width="160%" height="160%">
      <feGaussianBlur stdDeviation="1.2"/>
    </filter>
  </defs>
  <ellipse cx="48" cy="112" rx="27" ry="8" fill="rgba(0,0,0,.32)"/>
  <rect x="39" y="70" width="18" height="40" rx="5" fill="#8b5a35" stroke="#26170f" stroke-width="3"/>
  <path d="M48 6 L21 46 H32 L15 70 H29 L11 96 H85 L67 70 H81 L64 46 H75 Z" fill="url(#pShadow)" opacity=".55"/>
  <path d="M48 3 L17 53 H31 L10 82 H29 L15 101 H81 L67 82 H86 L65 53 H79 Z" fill="url(#p)" stroke="#082d24" stroke-width="4"/>
  <path d="M48 14 L31 50 H44 L27 77 H39 L25 96" stroke="#eeffd6" stroke-opacity=".34" fill="none" stroke-width="5" stroke-linecap="round"/>
  <path d="M55 20 L68 53 H56 L73 83 H60 L72 99" stroke="#06291e" stroke-opacity=".3" fill="none" stroke-width="5" stroke-linecap="round"/>
  <circle cx="62" cy="60" r="4" fill="#5cf4ff" opacity=".45" filter="url(#leafGlow)"/>
  <circle cx="32" cy="78" r="3" fill="#ffd166" opacity=".35"/>
</svg>
