<svg xmlns="http://www.w3.org/2000/svg" width="256" height="256" viewBox="0 0 256 256">
  <title>dreamblade cadet sprite sheet</title>
  <defs>
    <linearGradient id="cape" x1="0" x2="1" y1="0" y2="1">
      <stop offset="0" stop-color="#ff5cff"/>
      <stop offset="1" stop-color="#5f3dc4"/>
    </linearGradient>
    <linearGradient id="armor" x1="0" x2="1" y1="0" y2="1">
      <stop offset="0" stop-color="#5cf4ff"/>
      <stop offset="1" stop-color="#2866ff"/>
    </linearGradient>
    <linearGradient id="hair" x1="0" x2="1">
      <stop offset="0" stop-color="#1f2c68"/>
      <stop offset="1" stop-color="#9b5cff"/>
    </linearGradient>
    <filter id="glow" x="-30%" y="-30%" width="160%" height="160%">
      <feGaussianBlur stdDeviation="1.2" result="blur"/>
      <feMerge>
        <feMergeNode in="blur"/>
        <feMergeNode in="SourceGraphic"/>
      </feMerge>
    </filter>
    <symbol id="south" viewBox="0 0 64 64">
      <ellipse cx="32" cy="50" rx="17" ry="6" fill="rgba(0,0,0,.32)"/>
      <path d="M20 22 L32 14 L44 22 L41 52 L23 52 Z" fill="url(#cape)" stroke="#071024" stroke-width="3"/>
      <path d="M24 28 H40 L43 43 L36 52 H28 L21 43 Z" fill="url(#armor)" stroke="#071024" stroke-width="3"/>
      <path d="M24 18 Q32 8 42 18 L40 30 H24 Z" fill="#ffd2a8" stroke="#071024" stroke-width="3"/>
      <path d="M22 18 Q31 4 45 15 Q39 14 37 26 Q31 20 23 27 Z" fill="url(#hair)" stroke="#071024" stroke-width="3"/>
      <rect x="26" y="24" width="4" height="5" fill="#071024"/>
      <rect x="36" y="24" width="4" height="5" fill="#071024"/>
      <rect x="27" y="25" width="1.5" height="2.5" fill="#fff"/>
      <rect x="37" y="25" width="1.5" height="2.5" fill="#fff"/>
      <path d="M29 34 Q32 36 35 34" stroke="#c9795a" stroke-width="2" fill="none"/>
      <path d="M46 17 L50 50" stroke="#f5f8ff" stroke-width="4" stroke-linecap="round"/>
      <path d="M42 16 H54" stroke="#ffd166" stroke-width="4" stroke-linecap="round"/>
      <circle cx="50" cy="51" r="3" fill="#5cf4ff" filter="url(#glow)"/>
    </symbol>
    <symbol id="west" viewBox="0 0 64 64">
      <ellipse cx="32" cy="50" rx="17" ry="6" fill="rgba(0,0,0,.32)"/>
      <path d="M26 20 L44 24 L40 52 L23 52 L18 34 Z" fill="url(#cape)" stroke="#071024" stroke-width="3"/>
      <path d="M23 28 H39 L42 43 L35 52 H27 L20 43 Z" fill="url(#armor)" stroke="#071024" stroke-width="3"/>
      <path d="M22 18 Q31 8 39 19 L36 31 H23 Z" fill="#ffd2a8" stroke="#071024" stroke-width="3"/>
      <path d="M20 18 Q30 4 42 16 Q35 15 33 27 Q28 23 22 28 Z" fill="url(#hair)" stroke="#071024" stroke-width="3"/>
      <rect x="25" y="24" width="4" height="5" fill="#071024"/>
      <path d="M28 34 Q31 36 34 34" stroke="#c9795a" stroke-width="2" fill="none"/>
      <path d="M17 17 L13 50" stroke="#f5f8ff" stroke-width="4" stroke-linecap="round"/>
      <path d="M10 16 H22" stroke="#ffd166" stroke-width="4" stroke-linecap="round"/>
      <circle cx="13" cy="51" r="3" fill="#5cf4ff" filter="url(#glow)"/>
    </symbol>
    <symbol id="east" viewBox="0 0 64 64">
      <ellipse cx="32" cy="50" rx="17" ry="6" fill="rgba(0,0,0,.32)"/>
      <path d="M38 20 L20 24 L24 52 L41 52 L46 34 Z" fill="url(#cape)" stroke="#071024" stroke-width="3"/>
      <path d="M25 28 H41 L44 43 L37 52 H29 L22 43 Z" fill="url(#armor)" stroke="#071024" stroke-width="3"/>
      <path d="M25 19 Q33 8 42 18 L41 31 H26 Z" fill="#ffd2a8" stroke="#071024" stroke-width="3"/>
      <path d="M22 16 Q35 4 44 18 Q37 15 36 27 Q31 22 24 28 Z" fill="url(#hair)" stroke="#071024" stroke-width="3"/>
      <rect x="36" y="24" width="4" height="5" fill="#071024"/>
      <path d="M30 34 Q33 36 36 34" stroke="#c9795a" stroke-width="2" fill="none"/>
      <path d="M47 17 L51 50" stroke="#f5f8ff" stroke-width="4" stroke-linecap="round"/>
      <path d="M42 16 H54" stroke="#ffd166" stroke-width="4" stroke-linecap="round"/>
      <circle cx="51" cy="51" r="3" fill="#5cf4ff" filter="url(#glow)"/>
    </symbol>
    <symbol id="north" viewBox="0 0 64 64">
      <ellipse cx="32" cy="50" rx="17" ry="6" fill="rgba(0,0,0,.32)"/>
      <path d="M19 23 L32 13 L45 23 L42 52 L22 52 Z" fill="url(#cape)" stroke="#071024" stroke-width="3"/>
      <path d="M24 28 H40 L43 43 L36 52 H28 L21 43 Z" fill="url(#armor)" stroke="#071024" stroke-width="3"/>
      <path d="M23 18 Q32 5 43 18 L41 31 Q32 26 23 31 Z" fill="url(#hair)" stroke="#071024" stroke-width="3"/>
      <path d="M46 17 L50 50" stroke="#f5f8ff" stroke-width="4" stroke-linecap="round"/>
      <path d="M42 16 H54" stroke="#ffd166" stroke-width="4" stroke-linecap="round"/>
      <circle cx="50" cy="51" r="3" fill="#5cf4ff" filter="url(#glow)"/>
    </symbol>
  </defs>
  <rect width="256" height="256" fill="none"/>
  <g opacity=".96">
    <use href="#south" x="0" y="0"/>
    <use href="#south" x="64" y="0"/>
    <use href="#south" x="128" y="0"/>
    <use href="#south" x="192" y="0"/>
    <use href="#west" x="0" y="64"/>
    <use href="#west" x="64" y="64"/>
    <use href="#west" x="128" y="64"/>
    <use href="#west" x="192" y="64"/>
    <use href="#east" x="0" y="128"/>
    <use href="#east" x="64" y="128"/>
    <use href="#east" x="128" y="128"/>
    <use href="#east" x="192" y="128"/>
    <use href="#north" x="0" y="192"/>
    <use href="#north" x="64" y="192"/>
    <use href="#north" x="128" y="192"/>
    <use href="#north" x="192" y="192"/>
  </g>
  <g fill="#5cf4ff" opacity=".55">
    <rect x="90" y="52" width="8" height="3" rx="1"/>
    <rect x="154" y="50" width="10" height="3" rx="1"/>
    <rect x="218" y="53" width="8" height="3" rx="1"/>
    <rect x="84" y="116" width="8" height="3" rx="1"/>
    <rect x="148" y="114" width="10" height="3" rx="1"/>
    <rect x="212" y="117" width="8" height="3" rx="1"/>
    <rect x="90" y="180" width="8" height="3" rx="1"/>
    <rect x="154" y="178" width="10" height="3" rx="1"/>
    <rect x="218" y="181" width="8" height="3" rx="1"/>
    <rect x="90" y="244" width="8" height="3" rx="1"/>
    <rect x="154" y="242" width="10" height="3" rx="1"/>
    <rect x="218" y="245" width="8" height="3" rx="1"/>
  </g>
</svg>
