<svg width="960" height="540" viewBox="0 0 960 540" fill="none" xmlns="http://www.w3.org/2000/svg">
  <rect width="960" height="540" rx="28" fill="#0B0F14"/>
  <rect x="32" y="32" width="896" height="76" rx="16" fill="#121825" stroke="#1F2A37" stroke-width="2"/>
  <circle cx="70" cy="70" r="10" fill="#34D399"/>
  <circle cx="102" cy="70" r="10" fill="#FBBF24"/>
  <circle cx="134" cy="70" r="10" fill="#F87171"/>
  <rect x="180" y="58" width="220" height="24" rx="12" fill="#1F2937"/>
  <rect x="32" y="132" width="560" height="376" rx="20" fill="#111827" stroke="#1F2A37" stroke-width="2"/>
  <rect x="620" y="132" width="308" height="166" rx="18" fill="#111827" stroke="#1F2A37" stroke-width="2"/>
  <rect x="620" y="326" width="308" height="182" rx="18" fill="#111827" stroke="#1F2A37" stroke-width="2"/>
  <rect x="64" y="166" width="496" height="44" rx="12" fill="#1F2937"/>
  <rect x="64" y="228" width="496" height="44" rx="12" fill="#1F2937"/>
  <rect x="64" y="290" width="496" height="44" rx="12" fill="#1F2937"/>
  <rect x="64" y="352" width="496" height="44" rx="12" fill="#1F2937"/>
  <rect x="64" y="414" width="496" height="44" rx="12" fill="#1F2937"/>
  <circle cx="92" cy="188" r="8" fill="#60A5FA"/>
  <circle cx="92" cy="250" r="8" fill="#A78BFA"/>
  <circle cx="92" cy="312" r="8" fill="#34D399"/>
  <circle cx="92" cy="374" r="8" fill="#FBBF24"/>
  <circle cx="92" cy="436" r="8" fill="#F87171"/>
  <rect x="646" y="164" width="260" height="24" rx="12" fill="#1F2937"/>
  <rect x="646" y="200" width="260" height="24" rx="12" fill="#1F2937"/>
  <rect x="646" y="236" width="180" height="24" rx="12" fill="#1F2937"/>
  <rect x="646" y="356" width="260" height="18" rx="9" fill="#1F2937"/>
  <rect x="646" y="384" width="220" height="18" rx="9" fill="#1F2937"/>
  <rect x="646" y="412" width="240" height="18" rx="9" fill="#1F2937"/>
  <rect x="646" y="440" width="200" height="18" rx="9" fill="#1F2937"/>
  <text x="650" y="326" fill="#94A3B8" font-size="14" font-family="Inter, sans-serif">Agent activity · proof snapshot</text>
</svg>
